<?xml version="1.0" encoding="UTF-8"?>
<svg width="202px" height="37px" viewBox="0 0 202 37" version="1.1" xmlns="http://www.w3.org/2000/svg" xmlns:xlink="http://www.w3.org/1999/xlink">
    <title>CanBalkaya</title>
    <g id="Symbols" stroke="none" stroke-width="1" fill="none" fill-rule="evenodd">
        <g id="Icon/Header/Dark" transform="translate(-1.000000, -9.000000)" fill="#000000" fill-rule="nonzero">
            <path d="M12.7734375,38.5273438 C14.7395833,38.5273438 16.4876302,38.1497396 18.0175781,37.3945312 C19.547526,36.6393229 20.7519531,35.5976562 21.6308594,34.2695312 C22.5097656,32.9414062 22.9492188,31.4179688 22.9492188,29.6992188 L22.9492188,29.40625 L22.9492188,29.40625 L18.6328125,29.40625 C18.6197917,30.4348958 18.3691406,31.3528646 17.8808594,32.1601562 C17.3925781,32.9674479 16.7154948,33.5957031 15.8496094,34.0449219 C14.983724,34.4941406 13.9648437,34.71875 12.7929688,34.71875 C11.4388021,34.71875 10.2832031,34.3932292 9.32617188,33.7421875 C8.36914062,33.0911458 7.64322917,32.1438802 7.1484375,30.9003906 C6.65364583,29.656901 6.40625,28.1497396 6.40625,26.3789062 L6.40625,23.0976562 C6.40625,21.2877604 6.65364583,19.7513021 7.1484375,18.4882812 C7.64322917,17.2252604 8.36914062,16.2682292 9.32617188,15.6171875 C10.2832031,14.9661458 11.4388021,14.640625 12.7929688,14.640625 C13.9648437,14.640625 14.983724,14.8815104 15.8496094,15.3632812 C16.7154948,15.8450521 17.3925781,16.5091146 17.8808594,17.3554688 C18.3691406,18.2018229 18.6197917,19.1848958 18.6328125,20.3046875 L22.9492188,20.3046875 L22.9492188,20.0117188 L22.9492188,20.0117188 C22.9492188,18.6575521 22.6953125,17.4173177 22.1875,16.2910156 C21.6796875,15.1647135 20.9733073,14.1946615 20.0683594,13.3808594 C19.1634115,12.5670573 18.0924479,11.9355469 16.8554688,11.4863281 C15.6184896,11.0371094 14.2578125,10.8125 12.7734375,10.8125 C10.4817708,10.8125 8.52864583,11.3040365 6.9140625,12.2871094 C5.29947917,13.2701823 4.06575521,14.6796875 3.21289062,16.515625 C2.36002604,18.3515625 1.93359375,20.5455729 1.93359375,23.0976562 L1.93359375,26.359375 C1.93359375,28.8854167 2.36002604,31.0598958 3.21289062,32.8828125 C4.06575521,34.7057292 5.29947917,36.1022135 6.9140625,37.0722656 C8.52864583,38.0423177 10.4817708,38.5273438 12.7734375,38.5273438 Z M32.3242188,38.3125 C33.3398438,38.3125 34.2220052,38.1855469 34.9707031,37.9316406 C35.719401,37.6777344 36.3509115,37.3359375 36.8652344,36.90625 C37.3795573,36.4765625 37.7864583,35.9947917 38.0859375,35.4609375 L38.2421875,35.4609375 L38.2421875,38 L42.3632812,38 L42.3632812,23.9375 C42.3632812,22.3880208 42.014974,21.1054688 41.3183594,20.0898438 C40.6217448,19.0742188 39.671224,18.3125 38.4667969,17.8046875 C37.2623698,17.296875 35.8919271,17.0429688 34.3554688,17.0429688 C32.9882812,17.0429688 31.8066406,17.2122396 30.8105469,17.5507812 C29.8144531,17.8893229 28.9941406,18.3548177 28.3496094,18.9472656 C27.7050781,19.5397135 27.2200521,20.2265625 26.8945312,21.0078125 C26.5690104,21.7890625 26.3802083,22.6158854 26.328125,23.4882812 L30.390625,23.4882812 C30.4427083,22.8763021 30.625,22.3391927 30.9375,21.8769531 C31.25,21.4147135 31.6861979,21.0566406 32.2460938,20.8027344 C32.8059896,20.5488281 33.4765625,20.421875 34.2578125,20.421875 C35.46875,20.421875 36.4095052,20.7408854 37.0800781,21.3789062 C37.750651,22.0169271 38.0859375,22.921875 38.0859375,24.09375 L38.0859375,26.0664062 L32.8515625,26.0664062 C30.4817708,26.0664062 28.6751302,26.610026 27.4316406,27.6972656 C26.188151,28.7845052 25.5664062,30.2395833 25.5664062,32.0625 C25.5664062,33.9895833 26.1914062,35.5130208 27.4414062,36.6328125 C28.6914062,37.7526042 30.3190104,38.3125 32.3242188,38.3125 Z M33.6328125,35.0117188 C32.6692708,35.0117188 31.8098958,34.7513021 31.0546875,34.2304688 C30.2994792,33.7096354 29.921875,32.9088542 29.921875,31.828125 C29.921875,30.96875 30.218099,30.2688802 30.8105469,29.7285156 C31.4029948,29.188151 32.3307292,28.9179688 33.59375,28.9179688 L38.0859375,28.9179688 L38.0859375,31.203125 C38.0859375,31.9453125 37.890625,32.6028646 37.5,33.1757812 C37.109375,33.7486979 36.578776,34.1979167 35.9082031,34.5234375 C35.2376302,34.8489583 34.4791667,35.0117188 33.6328125,35.0117188 Z M51.2304688,38 L51.2304688,25.6953125 C51.2304688,24.7838542 51.3964844,23.9602865 51.7285156,23.2246094 C52.0605469,22.4889323 52.561849,21.9029948 53.2324219,21.4667969 C53.9029948,21.030599 54.7460938,20.8125 55.7617188,20.8125 C56.6210938,20.8125 57.3893229,20.9817708 58.0664062,21.3203125 C58.7434896,21.6588542 59.2773438,22.1796875 59.6679688,22.8828125 C60.0585938,23.5859375 60.2539062,24.4973958 60.2539062,25.6171875 L60.2539062,38 L64.5703125,38 L64.5703125,24.7382812 C64.5703125,22.2252604 63.8932292,20.3144531 62.5390625,19.0058594 C61.1848958,17.6972656 59.4466146,17.0429688 57.3242188,17.0429688 C56.2044271,17.0429688 55.2376302,17.2154948 54.4238281,17.5605469 C53.610026,17.905599 52.9492188,18.3255208 52.4414062,18.8203125 C51.9335938,19.3151042 51.5625,19.7903646 51.328125,20.2460938 L51.171875,20.2460938 L51.171875,17.3554688 L46.9140625,17.3554688 L46.9140625,38 L51.2304688,38 Z M86.8359375,38 C88.6979167,38 90.3255208,37.703776 91.71875,37.1113281 C93.1119792,36.5188802 94.1959635,35.6627604 94.9707031,34.5429688 C95.7454427,33.4231771 96.1328125,32.0755208 96.1328125,30.5 C96.1328125,29.2109375 95.8789062,28.1009115 95.3710938,27.1699219 C94.8632812,26.2389323 94.1666667,25.5032552 93.28125,24.9628906 C92.3958333,24.422526 91.3932292,24.0872396 90.2734375,23.9570312 L90.2734375,23.7617188 C91.1588542,23.5143229 91.9335938,23.1302083 92.5976562,22.609375 C93.2617188,22.0885417 93.7760417,21.4342448 94.140625,20.6464844 C94.5052083,19.858724 94.6875,18.9440104 94.6875,17.9023438 C94.6875,15.8580729 93.9941406,14.2532552 92.6074219,13.0878906 C91.2207031,11.922526 89.3619792,11.3398438 87.03125,11.3398438 L76.40625,11.3398438 L76.40625,38 L86.8359375,38 Z M84.5703125,22.609375 L80.8203125,22.609375 L80.8203125,14.8554688 L86.1132812,14.8554688 C87.4414062,14.8554688 88.4700521,15.1907552 89.1992188,15.8613281 C89.9283854,16.531901 90.2929688,17.4596354 90.2929688,18.6445312 C90.2929688,19.5169271 90.0911458,20.249349 89.6875,20.8417969 C89.2838542,21.4342448 88.6621094,21.8769531 87.8222656,22.1699219 C86.9824219,22.4628906 85.8984375,22.609375 84.5703125,22.609375 Z M85.0585938,34.484375 L80.8203125,34.484375 L80.8203125,25.9492188 L86.4648438,25.9492188 C87.5716146,25.9492188 88.5091146,26.1217448 89.2773438,26.4667969 C90.0455729,26.811849 90.6282552,27.313151 91.0253906,27.9707031 C91.422526,28.6282552 91.6210938,29.4192708 91.6210938,30.34375 C91.6210938,31.75 91.110026,32.7916667 90.0878906,33.46875 C89.0657552,34.1458333 87.3893229,34.484375 85.0585938,34.484375 Z M105.292969,38.3125 C106.308594,38.3125 107.190755,38.1855469 107.939453,37.9316406 C108.688151,37.6777344 109.319661,37.3359375 109.833984,36.90625 C110.348307,36.4765625 110.755208,35.9947917 111.054688,35.4609375 L111.210938,35.4609375 L111.210938,38 L115.332031,38 L115.332031,23.9375 C115.332031,22.3880208 114.983724,21.1054688 114.287109,20.0898438 C113.590495,19.0742188 112.639974,18.3125 111.435547,17.8046875 C110.23112,17.296875 108.860677,17.0429688 107.324219,17.0429688 C105.957031,17.0429688 104.775391,17.2122396 103.779297,17.5507812 C102.783203,17.8893229 101.962891,18.3548177 101.318359,18.9472656 C100.673828,19.5397135 100.188802,20.2265625 99.8632812,21.0078125 C99.5377604,21.7890625 99.3489583,22.6158854 99.296875,23.4882812 L103.359375,23.4882812 C103.411458,22.8763021 103.59375,22.3391927 103.90625,21.8769531 C104.21875,21.4147135 104.654948,21.0566406 105.214844,20.8027344 C105.77474,20.5488281 106.445312,20.421875 107.226562,20.421875 C108.4375,20.421875 109.378255,20.7408854 110.048828,21.3789062 C110.719401,22.0169271 111.054688,22.921875 111.054688,24.09375 L111.054688,26.0664062 L105.820312,26.0664062 C103.450521,26.0664062 101.64388,26.610026 100.400391,27.6972656 C99.156901,28.7845052 98.5351562,30.2395833 98.5351562,32.0625 C98.5351562,33.9895833 99.1601562,35.5130208 100.410156,36.6328125 C101.660156,37.7526042 103.28776,38.3125 105.292969,38.3125 Z M106.601562,35.0117188 C105.638021,35.0117188 104.778646,34.7513021 104.023438,34.2304688 C103.268229,33.7096354 102.890625,32.9088542 102.890625,31.828125 C102.890625,30.96875 103.186849,30.2688802 103.779297,29.7285156 C104.371745,29.188151 105.299479,28.9179688 106.5625,28.9179688 L111.054688,28.9179688 L111.054688,31.203125 C111.054688,31.9453125 110.859375,32.6028646 110.46875,33.1757812 C110.078125,33.7486979 109.547526,34.1979167 108.876953,34.5234375 C108.20638,34.8489583 107.447917,35.0117188 106.601562,35.0117188 Z M124.355469,38 L124.355469,9.93359375 L120.019531,9.93359375 L120.019531,38 L124.355469,38 Z M133.59375,38 L133.59375,30.7539062 L135.253906,28.8789062 L141.660156,38 L146.835938,38 L138.515625,26.3007812 L146.328125,17.3554688 L141.191406,17.3554688 L133.769531,26.125 L133.59375,26.125 L133.59375,9.93359375 L129.257812,9.93359375 L129.257812,38 L133.59375,38 Z M153.945312,38.3125 C154.960938,38.3125 155.843099,38.1855469 156.591797,37.9316406 C157.340495,37.6777344 157.972005,37.3359375 158.486328,36.90625 C159.000651,36.4765625 159.407552,35.9947917 159.707031,35.4609375 L159.863281,35.4609375 L159.863281,38 L163.984375,38 L163.984375,23.9375 C163.984375,22.3880208 163.636068,21.1054688 162.939453,20.0898438 C162.242839,19.0742188 161.292318,18.3125 160.087891,17.8046875 C158.883464,17.296875 157.513021,17.0429688 155.976562,17.0429688 C154.609375,17.0429688 153.427734,17.2122396 152.431641,17.5507812 C151.435547,17.8893229 150.615234,18.3548177 149.970703,18.9472656 C149.326172,19.5397135 148.841146,20.2265625 148.515625,21.0078125 C148.190104,21.7890625 148.001302,22.6158854 147.949219,23.4882812 L152.011719,23.4882812 C152.063802,22.8763021 152.246094,22.3391927 152.558594,21.8769531 C152.871094,21.4147135 153.307292,21.0566406 153.867188,20.8027344 C154.427083,20.5488281 155.097656,20.421875 155.878906,20.421875 C157.089844,20.421875 158.030599,20.7408854 158.701172,21.3789062 C159.371745,22.0169271 159.707031,22.921875 159.707031,24.09375 L159.707031,26.0664062 L154.472656,26.0664062 C152.102865,26.0664062 150.296224,26.610026 149.052734,27.6972656 C147.809245,28.7845052 147.1875,30.2395833 147.1875,32.0625 C147.1875,33.9895833 147.8125,35.5130208 149.0625,36.6328125 C150.3125,37.7526042 151.940104,38.3125 153.945312,38.3125 Z M155.253906,35.0117188 C154.290365,35.0117188 153.43099,34.7513021 152.675781,34.2304688 C151.920573,33.7096354 151.542969,32.9088542 151.542969,31.828125 C151.542969,30.96875 151.839193,30.2688802 152.431641,29.7285156 C153.024089,29.188151 153.951823,28.9179688 155.214844,28.9179688 L159.707031,28.9179688 L159.707031,31.203125 C159.707031,31.9453125 159.511719,32.6028646 159.121094,33.1757812 C158.730469,33.7486979 158.19987,34.1979167 157.529297,34.5234375 C156.858724,34.8489583 156.10026,35.0117188 155.253906,35.0117188 Z M169.6875,45.2460938 C171.692708,45.2460938 173.313802,44.8001302 174.550781,43.9082031 C175.78776,43.016276 176.835938,41.4309896 177.695312,39.1523438 L178.222656,37.7265625 C178.678385,36.4375 179.176432,35.0247396 179.716797,33.4882812 C180.257161,31.9518229 180.826823,30.3177083 181.425781,28.5859375 C182.02474,26.8541667 182.646484,25.047526 183.291016,23.1660156 C183.935547,21.2845052 184.589844,19.3476562 185.253906,17.3554688 L180.664062,17.3554688 L175.664062,33.7617188 L175.527344,33.7617188 L170.585938,17.3554688 L165.78125,17.3554688 L173.144531,38.15625 L172.890625,39.0546875 C172.669271,40.0703125 172.255859,40.7929688 171.650391,41.2226562 C171.044922,41.6523438 170.15625,41.8671875 168.984375,41.8671875 C168.710938,41.8671875 168.421224,41.8574219 168.115234,41.8378906 C167.809245,41.8183594 167.571615,41.7955729 167.402344,41.7695312 L167.402344,45.0507812 C167.701823,45.1028646 168.063151,45.1484375 168.486328,45.1875 C168.909505,45.2265625 169.309896,45.2460938 169.6875,45.2460938 Z M192.890625,38.3125 C193.90625,38.3125 194.788411,38.1855469 195.537109,37.9316406 C196.285807,37.6777344 196.917318,37.3359375 197.431641,36.90625 C197.945964,36.4765625 198.352865,35.9947917 198.652344,35.4609375 L198.808594,35.4609375 L198.808594,38 L202.929688,38 L202.929688,23.9375 C202.929688,22.3880208 202.58138,21.1054688 201.884766,20.0898438 C201.188151,19.0742188 200.23763,18.3125 199.033203,17.8046875 C197.828776,17.296875 196.458333,17.0429688 194.921875,17.0429688 C193.554688,17.0429688 192.373047,17.2122396 191.376953,17.5507812 C190.380859,17.8893229 189.560547,18.3548177 188.916016,18.9472656 C188.271484,19.5397135 187.786458,20.2265625 187.460938,21.0078125 C187.135417,21.7890625 186.946615,22.6158854 186.894531,23.4882812 L190.957031,23.4882812 C191.009115,22.8763021 191.191406,22.3391927 191.503906,21.8769531 C191.816406,21.4147135 192.252604,21.0566406 192.8125,20.8027344 C193.372396,20.5488281 194.042969,20.421875 194.824219,20.421875 C196.035156,20.421875 196.975911,20.7408854 197.646484,21.3789062 C198.317057,22.0169271 198.652344,22.921875 198.652344,24.09375 L198.652344,26.0664062 L193.417969,26.0664062 C191.048177,26.0664062 189.241536,26.610026 187.998047,27.6972656 C186.754557,28.7845052 186.132812,30.2395833 186.132812,32.0625 C186.132812,33.9895833 186.757812,35.5130208 188.007812,36.6328125 C189.257812,37.7526042 190.885417,38.3125 192.890625,38.3125 Z M194.199219,35.0117188 C193.235677,35.0117188 192.376302,34.7513021 191.621094,34.2304688 C190.865885,33.7096354 190.488281,32.9088542 190.488281,31.828125 C190.488281,30.96875 190.784505,30.2688802 191.376953,29.7285156 C191.969401,29.188151 192.897135,28.9179688 194.160156,28.9179688 L198.652344,28.9179688 L198.652344,31.203125 C198.652344,31.9453125 198.457031,32.6028646 198.066406,33.1757812 C197.675781,33.7486979 197.145182,34.1979167 196.474609,34.5234375 C195.804036,34.8489583 195.045573,35.0117188 194.199219,35.0117188 Z" id="CanBalkaya"></path>
        </g>
    </g>
</svg>